<svg width="24" height="21" viewBox="0 0 24 21" fill="none" xmlns="http://www.w3.org/2000/svg">
<path d="M19.9791 0.3125C20.8241 0.312453 21.6371 0.635276 22.2518 1.21492C22.8665 1.79456 23.2365 2.5872 23.2861 3.43067L23.2916 3.625V16.875C23.2917 17.7199 22.9689 18.5329 22.3892 19.1477C21.8096 19.7624 21.0169 20.1324 20.1735 20.182L19.9791 20.1875H7.95255C7.42686 20.1874 6.90874 20.0621 6.44103 19.8221C5.97332 19.5821 5.56945 19.2343 5.2628 18.8073L5.14355 18.6306L0.638548 11.4204C0.436566 11.0974 0.321572 10.7277 0.304739 10.3471C0.287906 9.96654 0.369808 9.58808 0.542485 9.24852L0.637444 9.07958L5.14355 1.86937C5.42216 1.42351 5.80291 1.05036 6.2543 0.780792C6.70569 0.511223 7.21477 0.352972 7.73944 0.319125L7.95255 0.3125H19.9791ZM19.9791 2.52083H7.95255C7.78925 2.52089 7.62799 2.55716 7.4804 2.62704C7.33281 2.69693 7.20256 2.79867 7.09903 2.92496L7.01621 3.03979L2.51121 10.25L7.01621 17.4602C7.10275 17.5987 7.21894 17.7164 7.35641 17.8046C7.49389 17.8928 7.64922 17.9494 7.81121 17.9703L7.95255 17.9792H19.9791C20.2496 17.9791 20.5106 17.8798 20.7127 17.7001C20.9148 17.5204 21.0439 17.2728 21.0756 17.0042L21.0833 16.875V3.625C21.0833 3.35455 20.984 3.09352 20.8043 2.89142C20.6245 2.68932 20.3769 2.5602 20.1083 2.52856L19.9791 2.52083ZM11.0122 6.34567L13.353 8.68871L15.6961 6.34567C15.7987 6.24315 15.9204 6.16185 16.0544 6.10639C16.1885 6.05094 16.3321 6.02242 16.4771 6.02247C16.6221 6.02252 16.7657 6.05114 16.8997 6.10669C17.0337 6.16224 17.1554 6.24363 17.2579 6.34622C17.3604 6.44881 17.4417 6.57058 17.4972 6.70459C17.5526 6.8386 17.5812 6.98222 17.5811 7.12726C17.5811 7.27229 17.5524 7.41589 17.4969 7.54986C17.4413 7.68383 17.3599 7.80555 17.2574 7.90806L14.9165 10.25L17.2574 12.5919C17.4645 12.799 17.581 13.0798 17.5811 13.3727C17.5812 13.6656 17.465 13.9466 17.2579 14.1538C17.0509 14.361 16.77 14.4774 16.4771 14.4775C16.1842 14.4776 15.9033 14.3614 15.6961 14.1543L13.3541 11.8113L11.0122 14.1543C10.805 14.3615 10.524 14.4779 10.231 14.4779C9.93799 14.4779 9.65698 14.3615 9.4498 14.1543C9.24261 13.9471 9.12621 13.6661 9.12621 13.3731C9.12621 13.0801 9.24261 12.7991 9.4498 12.5919L11.7928 10.25L9.4498 7.90806C9.24261 7.70088 9.12621 7.41987 9.12621 7.12686C9.12621 6.83386 9.24261 6.55285 9.4498 6.34567C9.65698 6.13848 9.93799 6.02208 10.231 6.02208C10.524 6.02208 10.805 6.13848 11.0122 6.34567Z" fill="#9B000C"></path>
</svg>
