<svg width="20" height="20" viewBox="0 0 20 20" fill="none" xmlns="http://www.w3.org/2000/svg">
<g clip-path="url('#clip0_598_39')">
<path fill-rule="evenodd" clip-rule="evenodd" d="M3.33333 3.75V5.41667H10V6.25H2.5C1.83696 6.25 1.20107 6.51339 0.732233 6.98223C0.263392 7.45107 0 8.08696 0 8.75L0 13.75C0 14.413 0.263392 15.0489 0.732233 15.5178C1.20107 15.9866 1.83696 16.25 2.5 16.25H12.5C13.1272 16.2501 13.7315 16.0144 14.193 15.5898C14.6545 15.1651 14.9396 14.5825 14.9917 13.9575L20 14.5833V7.91667L14.9917 8.5425C14.9396 7.91749 14.6545 7.33488 14.193 6.91023C13.7315 6.48559 13.1272 6.24993 12.5 6.25H11.6667V4.58333C11.6667 4.36232 11.5789 4.15036 11.4226 3.99408C11.2663 3.8378 11.0543 3.75 10.8333 3.75H3.33333ZM15 10.2217V12.2783L18.3333 12.695V9.805L15 10.2217ZM13.3333 8.75C13.3333 8.52899 13.2455 8.31702 13.0893 8.16074C12.933 8.00446 12.721 7.91667 12.5 7.91667H2.5C2.27899 7.91667 2.06702 8.00446 1.91074 8.16074C1.75446 8.31702 1.66667 8.52899 1.66667 8.75V13.75C1.66667 13.971 1.75446 14.183 1.91074 14.3393C2.06702 14.4955 2.27899 14.5833 2.5 14.5833H12.5C12.721 14.5833 12.933 14.4955 13.0893 14.3393C13.2455 14.183 13.3333 13.971 13.3333 13.75V8.75Z" fill="white"></path>
</g>
<defs>
<clipPath id="clip0_598_39">
<rect width="20" height="20" fill="white"></rect>
</clipPath>
</defs>
</svg>
