<svg width="18" height="17" viewBox="0 0 18 17" fill="none" xmlns="http://www.w3.org/2000/svg">
<path d="M3.23367 16.0442L3.23355 16.0442C2.99392 16.0917 2.75352 16.1352 2.51245 16.1747L2.5115 16.1749C2.10181 16.2404 1.81945 15.8205 1.96881 15.4685M3.23367 16.0442L2.199 15.566M3.23367 16.0442C4.99257 15.6951 6.10988 15.2386 6.68032 14.9596M3.23367 16.0442L6.68032 14.9596M1.96881 15.4685C1.96884 15.4684 1.96887 15.4683 1.9689 15.4683L2.199 15.566M1.96881 15.4685C1.96878 15.4685 1.96875 15.4686 1.96873 15.4687L2.199 15.566M1.96881 15.4685C2.05447 15.2658 2.13324 15.0603 2.205 14.8523M2.199 15.566C2.28755 15.3565 2.36893 15.144 2.443 14.929M2.205 14.8523L2.20354 14.8572L2.443 14.929M2.205 14.8523L2.20654 14.8472L2.20944 14.8375L2.20963 14.8376C2.44029 14.1679 2.62919 13.4058 2.70917 12.6912M2.205 14.8523C2.20554 14.8507 2.20608 14.8492 2.20663 14.8476L2.443 14.929M2.443 14.929L2.70917 12.6912M2.70917 12.6912C1.49038 11.4305 0.75 9.79243 0.75 8C0.75 3.96561 4.47634 0.75 9 0.75C13.5237 0.75 17.25 3.96561 17.25 8C17.25 12.0344 13.5237 15.25 9 15.25M2.70917 12.6912L9 15.25M9 15.25C8.21748 15.2517 7.43803 15.1541 6.68032 14.9596M9 15.25C9.00019 15.25 9.00037 15.25 9.00056 15.25L6.68032 14.9596M3.85511 11.7176L3.85503 11.7175C2.83562 10.6952 2.25 9.39488 2.25 8C2.25 4.97503 5.11121 2.25 9 2.25C12.8888 2.25 15.75 4.97406 15.75 8C15.75 11.0259 12.8888 13.75 9 13.75L8.99936 13.75C8.31612 13.7518 7.63565 13.6632 6.97564 13.4865L6.97554 13.4865C6.6784 13.4071 6.36242 13.44 6.08805 13.579C5.75721 13.7465 5.05387 14.0587 3.92162 14.3509C4.05883 13.8157 4.15647 13.2708 4.21366 12.7209L4.21367 12.7209L4.21386 12.7188C4.23137 12.5358 4.2083 12.3512 4.14629 12.1781C4.08428 12.0051 3.98486 11.8478 3.85511 11.7176Z" fill="white" stroke="white" stroke-width="0.5"></path>
</svg>
