<svg width="20" height="11" viewBox="0 0 20 11" fill="none" xmlns="http://www.w3.org/2000/svg">
<path d="M9.02755 9.92314L9.02757 9.92315C9.24668 10.1084 9.52764 10.2031 9.80864 10.2031C10.0896 10.2031 10.3706 10.1084 10.5897 9.92315L10.5897 9.92314L18.6902 3.073C18.6909 3.07238 18.6917 3.07175 18.6924 3.07112C18.8044 2.97798 18.8986 2.86285 18.9658 2.73001C19.0336 2.59597 19.0717 2.44828 19.0751 2.29607C19.0784 2.14385 19.0468 1.99446 18.9845 1.8574C18.9223 1.72064 18.8318 1.60093 18.7222 1.50306C18.6128 1.40532 18.4859 1.33061 18.3503 1.28029C18.2148 1.22998 18.0712 1.2042 17.9272 1.20316C17.7833 1.20212 17.6394 1.22583 17.5032 1.27408C17.3679 1.322 17.2407 1.39401 17.1303 1.48886C17.1296 1.48953 17.1288 1.49021 17.128 1.49088L9.80864 7.68105L2.48698 1.48889C2.37659 1.39403 2.24941 1.32201 2.11414 1.27408C1.97793 1.22583 1.83397 1.20212 1.69004 1.20316C1.54612 1.2042 1.40249 1.22998 1.26697 1.28029C1.13144 1.33061 1.00449 1.40532 0.895063 1.50306C0.785503 1.60093 0.695001 1.72064 0.632822 1.8574C0.570501 1.99446 0.538897 2.14384 0.542231 2.29607C0.545565 2.44828 0.583661 2.59597 0.651502 2.73001C0.718718 2.86282 0.81287 2.97792 0.924763 3.07105L9.02755 9.92314Z" fill="#00619E" stroke="#00619E"></path>
</svg>
