<svg width="18" height="17" viewBox="0 0 18 17" fill="none" xmlns="http://www.w3.org/2000/svg">
<path d="M16.5 0.5H1.5C1.16848 0.5 0.850537 0.631696 0.616116 0.866116C0.381696 1.10054 0.25 1.41848 0.25 1.75V11.75C0.25 12.0815 0.381696 12.3995 0.616116 12.6339C0.850537 12.8683 1.16848 13 1.5 13H6.5V15.5H4V16.75H14V15.5H11.5V13H16.5C16.8315 13 17.1495 12.8683 17.3839 12.6339C17.6183 12.3995 17.75 12.0815 17.75 11.75V1.75C17.75 1.41848 17.6183 1.10054 17.3839 0.866116C17.1495 0.631696 16.8315 0.5 16.5 0.5ZM10.25 15.5H7.75V13H10.25V15.5ZM16.5 11.75H1.5V1.75H16.5V11.75Z" fill="white"></path>
</svg>
