<svg width="21" height="20" viewBox="0 0 21 20" fill="none" xmlns="http://www.w3.org/2000/svg">
<mask id="path-1-outside-1_604_45" maskUnits="userSpaceOnUse" x="6.70654" y="0.291016" width="14" height="14" fill="black">
<rect fill="white" x="6.70654" y="0.291016" width="14" height="14"></rect>
<path d="M9.92186 5.92099L12.9094 3.02807C14.0623 1.91224 16.1538 2.12724 17.3063 3.24349C18.4588 4.35974 18.6813 6.38432 17.5288 7.50057L13.1035 11.7852C11.9505 12.901 9.85946 12.686 8.70654 11.5697"></path>
</mask>
<path d="M8.8784 4.84341C8.28326 5.4197 8.26799 6.36932 8.84428 6.96445C9.42057 7.55959 10.3702 7.57486 10.9653 6.99857L8.8784 4.84341ZM12.9094 3.02807L11.8662 1.95022L11.8659 1.95049L12.9094 3.02807ZM17.5288 7.50057L18.5722 8.57823L18.5724 8.57804L17.5288 7.50057ZM13.1035 11.7852L14.1466 12.863L14.1468 12.8628L13.1035 11.7852ZM9.74993 10.4921C9.15476 9.91584 8.20513 9.93118 7.62889 10.5264C7.05264 11.1215 7.06798 12.0712 7.66316 12.6474L9.74993 10.4921ZM10.9653 6.99857L13.9528 4.10565L11.8659 1.95049L8.8784 4.84341L10.9653 6.99857ZM13.9526 4.10592C14.1583 3.90678 14.519 3.76298 15.0087 3.79546C15.5008 3.8281 15.9661 4.03369 16.2627 4.32095L18.3499 2.16603C17.494 1.33704 16.3373 0.876998 15.2073 0.802039C14.0748 0.726916 12.8133 1.03353 11.8662 1.95022L13.9526 4.10592ZM16.2627 4.32095C16.5571 4.60609 16.7545 5.0378 16.7856 5.47802C16.8163 5.911 16.6837 6.2308 16.4852 6.42311L18.5724 8.57804C19.5263 7.6541 19.8587 6.40348 19.7781 5.26604C19.6981 4.13584 19.208 2.99713 18.3499 2.16603L16.2627 4.32095ZM16.4854 6.42292L12.0601 10.7075L14.1468 12.8628L18.5722 8.57823L16.4854 6.42292ZM12.0603 10.7073C11.8545 10.9065 11.4938 11.0502 11.0043 11.0178C10.5123 10.9851 10.0469 10.7796 9.74993 10.4921L7.66316 12.6474C8.51915 13.4762 9.6757 13.9362 10.8057 14.0112C11.9382 14.0863 13.1995 13.7797 14.1466 12.863L12.0603 10.7073Z" fill="white" mask="url('#path-1-outside-1_604_45')"></path>
<mask id="path-3-outside-2_604_45" maskUnits="userSpaceOnUse" x="0.367188" y="5.47656" width="14" height="14" fill="black">
<rect fill="white" x="0.367188" y="5.47656" width="14" height="14"></rect>
<path d="M10.7352 14.0782L7.74772 16.9707C6.5948 18.0865 4.50329 17.8715 3.3508 16.7553C2.19832 15.639 1.97582 13.6145 3.12831 12.4982L7.55363 8.21362C8.70654 7.09779 10.7981 7.31279 11.9505 8.42904"></path>
</mask>
<path d="M11.7786 15.1559C12.3738 14.5796 12.3891 13.63 11.8129 13.0348C11.2366 12.4396 10.287 12.4243 9.69184 13.0005L11.7786 15.1559ZM7.74772 16.9707L8.7909 18.0486L8.7911 18.0484L7.74772 16.9707ZM3.12831 12.4982L2.08492 11.4205L2.08472 11.4207L3.12831 12.4982ZM7.55363 8.21362L6.51044 7.13577L6.51024 7.13596L7.55363 8.21362ZM10.907 9.5065C11.502 10.0829 12.4516 10.0677 13.028 9.47262C13.6044 8.87756 13.5892 7.92793 12.9941 7.35157L10.907 9.5065ZM9.69184 13.0005L6.70433 15.893L8.7911 18.0484L11.7786 15.1559L9.69184 13.0005ZM6.70453 15.8929C6.49876 16.092 6.13804 16.2358 5.64838 16.2033C5.15627 16.1707 4.69097 15.9651 4.39439 15.6778L2.30721 17.8327C3.16311 18.6617 4.31982 19.1218 5.44981 19.1967C6.58226 19.2719 7.84375 18.9652 8.7909 18.0486L6.70453 15.8929ZM4.39439 15.6778C4.09999 15.3927 3.90263 14.961 3.87144 14.5208C3.84077 14.0878 3.97334 13.768 4.1719 13.5757L2.08472 11.4207C1.13079 12.3447 0.798367 13.5953 0.878941 14.7327C0.959003 15.8629 1.44913 17.0016 2.30721 17.8327L4.39439 15.6778ZM4.1717 13.5759L8.59701 9.29128L6.51024 7.13596L2.08492 11.4205L4.1717 13.5759ZM8.59681 9.29147C8.80258 9.09232 9.1633 8.94852 9.65296 8.98101C10.1451 9.01365 10.6104 9.21924 10.907 9.5065L12.9941 7.35157C12.1382 6.52258 10.9815 6.06254 9.85153 5.98759C8.71908 5.91246 7.45759 6.21908 6.51044 7.13577L8.59681 9.29147Z" fill="white" mask="url('#path-3-outside-2_604_45')"></path>
</svg>
