<svg width="469" height="315" viewBox="0 0 469 315" fill="none" xmlns="http://www.w3.org/2000/svg">
<path d="M221.467 0C217.777 17.5423 214.155 34.5655 210.325 52.6354L152.539 2.70564C147.559 7.77079 142.991 12.4729 138.345 17.0949C126.764 28.6181 115.161 40.1259 103.537 51.6182C98.6472 56.4723 93.7801 61.3461 88.9355 66.2396C74.0398 81.2409 59.1485 96.2436 44.2618 111.248C33.065 122.484 21.7687 133.619 10.5538 144.847C7.06305 148.342 3.68999 151.955 0 155.754L164.18 298L222.617 239.641C245.056 243.803 266.965 247.872 288.879 251.924C310.792 255.976 332.71 260.104 354.665 264.013C376.519 267.9 398.297 272.201 420.315 275.831C436.587 198.748 452.719 122.34 469 45.2318C386.254 30.1335 304.055 14.9253 221.467 0ZM186.867 89.248C186.867 89.248 211.747 89.1383 221.73 89.2227C235.228 89.3304 248.25 93.8836 258.495 102.077C268.739 110.271 275.547 121.578 277.714 133.999C278.619 139.123 278.166 149.426 276.763 153.187C269.451 152.685 255.356 151.102 249.733 150.051C251.499 136.738 248.375 125.257 237.056 116.853C230.296 111.851 222.3 110.319 213.39 110.944V174.68C224.895 177.572 237.282 171.536 247.143 158.071L274.051 162.857C273.747 164.227 273.215 165.545 272.475 166.762C263.216 183.413 249.307 193.877 229.169 195.886C215.695 197.233 202.003 196.591 188.384 196.811C187.931 196.811 186.714 196.811 186.714 196.811C186.7 161.304 186.867 125.143 186.867 89.248ZM137.403 153.297C128.928 153.457 120.452 153.369 111.972 153.369H105.9V196.634H80.238V90.0711L105.525 89.6195C105.642 91.1264 106.023 129.782 106.118 131.783H143.62V89.3029C152.376 89.1003 160.58 89.2058 168.667 89.2565L169.278 141.761C168.282 142.149 165.995 142.791 165.995 142.791C158.115 145.223 150.564 148.498 143.493 152.55C142.108 153.419 139.45 153.259 137.403 153.297ZM143.697 196.566V156.209C151.313 151.245 159.909 147.737 168.988 145.889V196.566H143.697ZM386.285 196.566L380.811 133.539L379.589 133.34C371.67 154.065 364.005 174.879 356.046 195.81H340.389L316.995 133.585L315.931 133.661C314.12 144.053 314.183 154.639 312.984 165.095C311.784 175.55 311.173 185.976 310.267 196.667H284.238C287.706 160.823 291.142 125.333 294.602 89.5646H322.451L347.565 150.195L348.625 150.266C353.383 140.372 357.15 130.094 361.397 120.002C365.644 109.91 369.791 99.8173 374.047 89.5604H401.666C405.365 125.164 408.606 160.692 412.079 196.574L386.285 196.566Z" fill="#F4FAFF"></path>
<path d="M291.44 212.2L291.92 216.904H289.16L285.176 227.848L283.952 224.536L288.416 212.2H291.44ZM278.384 212.2L284.6 229H281.768L277.448 216.904H274.928L275.408 212.2H278.384ZM290.24 229L289.112 217.816H292.016L293.192 229H290.24ZM273.68 229L274.832 217.816H277.472L276.512 229H273.68ZM306.563 228.4C305.411 228.928 303.779 229.312 302.339 229.312C298.547 229.312 296.195 226.72 296.195 222.856C296.195 221.512 296.483 220.336 297.011 219.424H299.867C299.507 219.928 299.243 220.672 299.147 221.656L304.067 221.608C304.211 220.096 303.731 218.512 301.979 218.512H297.635C298.619 217.144 300.227 216.4 302.099 216.4C306.011 216.4 307.403 219.592 306.731 223.072C305.291 223.48 301.547 223.576 299.195 223.528C299.435 226.096 300.995 226.984 302.867 226.984C303.971 226.984 305.219 226.72 306.131 226.408L306.563 228.4ZM319.782 228.4C318.63 228.928 316.998 229.312 315.558 229.312C311.766 229.312 309.414 226.72 309.414 222.856C309.414 221.512 309.702 220.336 310.23 219.424H313.086C312.726 219.928 312.462 220.672 312.366 221.656L317.286 221.608C317.43 220.096 316.95 218.512 315.198 218.512H310.854C311.838 217.144 313.446 216.4 315.318 216.4C319.23 216.4 320.622 219.592 319.95 223.072C318.51 223.48 314.766 223.576 312.414 223.528C312.654 226.096 314.214 226.984 316.086 226.984C317.19 226.984 318.438 226.72 319.35 226.408L319.782 228.4ZM330.121 216.64V218.896H321.841V216.928L323.761 216.856L324.121 213.544L326.665 213.04V216.76L330.121 216.64ZM330.409 228.76C329.641 229 328.657 229.288 327.553 229.288C325.297 229.288 323.689 228.184 323.689 224.728V219.832H326.665V224.704C326.665 225.952 326.977 226.816 328.585 226.816C329.041 226.816 329.617 226.768 330.169 226.648L330.409 228.76Z" fill="#00619E"></path>
<path d="M240.769 285.141V284.255C240.769 283.957 240.818 283.647 240.916 283.325C241.018 282.998 241.165 282.685 241.355 282.387C241.545 282.084 241.775 281.823 242.043 281.604L242.812 282.138C242.588 282.46 242.415 282.792 242.292 283.134C242.17 283.471 242.109 283.837 242.109 284.233V285.141H240.769ZM243.076 285.141V284.255C243.076 283.957 243.125 283.647 243.223 283.325C243.325 282.998 243.472 282.685 243.662 282.387C243.853 282.084 244.082 281.823 244.351 281.604L245.12 282.138C244.895 282.46 244.722 282.792 244.6 283.134C244.478 283.471 244.417 283.837 244.417 284.233V285.141H243.076ZM252.224 290.305C252.224 290.056 252.185 289.836 252.107 289.646C252.034 289.45 251.902 289.274 251.711 289.118C251.526 288.962 251.267 288.813 250.935 288.671C250.608 288.53 250.193 288.386 249.69 288.239C249.163 288.083 248.687 287.91 248.262 287.719C247.837 287.524 247.473 287.302 247.17 287.053C246.868 286.804 246.636 286.518 246.475 286.196C246.313 285.874 246.233 285.505 246.233 285.09C246.233 284.675 246.318 284.292 246.489 283.94C246.66 283.588 246.904 283.283 247.222 283.024C247.544 282.761 247.927 282.556 248.372 282.409C248.816 282.263 249.312 282.189 249.858 282.189C250.659 282.189 251.338 282.343 251.895 282.651C252.456 282.954 252.883 283.352 253.176 283.845C253.469 284.333 253.616 284.855 253.616 285.412H252.209C252.209 285.012 252.124 284.658 251.953 284.35C251.782 284.038 251.523 283.793 251.177 283.618C250.83 283.437 250.391 283.347 249.858 283.347C249.355 283.347 248.94 283.422 248.613 283.574C248.286 283.725 248.042 283.93 247.881 284.189C247.725 284.448 247.646 284.743 247.646 285.075C247.646 285.3 247.693 285.505 247.786 285.69C247.883 285.871 248.032 286.04 248.232 286.196C248.438 286.352 248.696 286.496 249.009 286.628C249.326 286.76 249.705 286.887 250.144 287.009C250.75 287.18 251.272 287.37 251.711 287.58C252.151 287.79 252.512 288.027 252.795 288.291C253.083 288.549 253.296 288.845 253.433 289.177C253.574 289.504 253.645 289.875 253.645 290.29C253.645 290.725 253.557 291.118 253.381 291.469C253.206 291.821 252.954 292.121 252.627 292.37C252.3 292.619 251.907 292.812 251.448 292.949C250.994 293.081 250.486 293.146 249.924 293.146C249.431 293.146 248.945 293.078 248.467 292.941C247.993 292.805 247.561 292.6 247.17 292.326C246.785 292.053 246.475 291.716 246.24 291.315C246.011 290.91 245.896 290.441 245.896 289.909H247.302C247.302 290.275 247.373 290.59 247.515 290.854C247.656 291.113 247.849 291.328 248.093 291.499C248.342 291.669 248.623 291.796 248.936 291.879C249.253 291.958 249.583 291.997 249.924 291.997C250.417 291.997 250.835 291.928 251.177 291.792C251.519 291.655 251.777 291.459 251.953 291.206C252.134 290.952 252.224 290.651 252.224 290.305ZM258.53 293.146C257.979 293.146 257.478 293.054 257.029 292.868C256.584 292.678 256.201 292.412 255.879 292.07C255.562 291.728 255.317 291.323 255.146 290.854C254.976 290.385 254.89 289.873 254.89 289.316V289.008C254.89 288.364 254.985 287.79 255.176 287.287C255.366 286.779 255.625 286.35 255.952 285.998C256.279 285.646 256.65 285.38 257.065 285.2C257.48 285.019 257.91 284.929 258.354 284.929C258.921 284.929 259.409 285.026 259.819 285.222C260.234 285.417 260.574 285.69 260.837 286.042C261.101 286.389 261.296 286.799 261.423 287.272C261.55 287.741 261.614 288.254 261.614 288.811V289.418H255.696V288.312H260.259V288.21C260.239 287.858 260.166 287.517 260.039 287.185C259.917 286.853 259.722 286.579 259.453 286.364C259.185 286.149 258.818 286.042 258.354 286.042C258.047 286.042 257.764 286.108 257.505 286.24C257.246 286.367 257.024 286.557 256.838 286.811C256.653 287.065 256.509 287.375 256.406 287.741C256.304 288.107 256.252 288.53 256.252 289.008V289.316C256.252 289.692 256.304 290.046 256.406 290.378C256.514 290.705 256.667 290.993 256.868 291.242C257.073 291.491 257.319 291.687 257.607 291.828C257.9 291.97 258.232 292.041 258.604 292.041C259.082 292.041 259.487 291.943 259.819 291.748C260.151 291.552 260.442 291.291 260.691 290.964L261.511 291.616C261.34 291.875 261.123 292.121 260.859 292.355C260.596 292.59 260.271 292.78 259.885 292.927C259.504 293.073 259.053 293.146 258.53 293.146ZM268.044 291.169V285.075H269.407V293H268.11L268.044 291.169ZM268.301 289.499L268.865 289.484C268.865 290.012 268.809 290.5 268.696 290.949C268.589 291.394 268.413 291.779 268.169 292.106C267.925 292.434 267.605 292.69 267.209 292.875C266.814 293.056 266.333 293.146 265.767 293.146C265.381 293.146 265.027 293.09 264.705 292.978C264.387 292.866 264.114 292.692 263.884 292.458C263.655 292.224 263.477 291.918 263.35 291.542C263.228 291.167 263.167 290.715 263.167 290.188V285.075H264.521V290.202C264.521 290.559 264.561 290.854 264.639 291.088C264.722 291.318 264.832 291.501 264.968 291.638C265.11 291.77 265.266 291.862 265.437 291.916C265.613 291.97 265.793 291.997 265.979 291.997C266.555 291.997 267.012 291.887 267.349 291.667C267.686 291.442 267.927 291.142 268.074 290.766C268.225 290.385 268.301 289.963 268.301 289.499ZM272.944 281.75V293H271.582V281.75H272.944ZM278.481 289.125V288.957C278.481 288.386 278.564 287.856 278.73 287.368C278.896 286.875 279.136 286.447 279.448 286.086C279.761 285.72 280.139 285.437 280.583 285.236C281.028 285.031 281.526 284.929 282.078 284.929C282.634 284.929 283.135 285.031 283.579 285.236C284.028 285.437 284.409 285.72 284.722 286.086C285.039 286.447 285.281 286.875 285.447 287.368C285.613 287.856 285.696 288.386 285.696 288.957V289.125C285.696 289.697 285.613 290.227 285.447 290.715C285.281 291.203 285.039 291.63 284.722 291.997C284.409 292.358 284.031 292.641 283.586 292.846C283.147 293.046 282.649 293.146 282.092 293.146C281.536 293.146 281.035 293.046 280.591 292.846C280.146 292.641 279.766 292.358 279.448 291.997C279.136 291.63 278.896 291.203 278.73 290.715C278.564 290.227 278.481 289.697 278.481 289.125ZM279.836 288.957V289.125C279.836 289.521 279.883 289.895 279.976 290.246C280.068 290.593 280.208 290.9 280.393 291.169C280.583 291.438 280.82 291.65 281.104 291.806C281.387 291.958 281.716 292.033 282.092 292.033C282.463 292.033 282.788 291.958 283.066 291.806C283.35 291.65 283.584 291.438 283.77 291.169C283.955 290.9 284.094 290.593 284.187 290.246C284.285 289.895 284.333 289.521 284.333 289.125V288.957C284.333 288.566 284.285 288.198 284.187 287.851C284.094 287.5 283.953 287.189 283.762 286.921C283.577 286.647 283.342 286.433 283.059 286.276C282.781 286.12 282.454 286.042 282.078 286.042C281.707 286.042 281.379 286.12 281.096 286.276C280.818 286.433 280.583 286.647 280.393 286.921C280.208 287.189 280.068 287.5 279.976 287.851C279.883 288.198 279.836 288.566 279.836 288.957ZM288.75 286.767V293H287.395V285.075H288.677L288.75 286.767ZM288.428 288.737L287.864 288.715C287.869 288.173 287.949 287.673 288.105 287.214C288.262 286.75 288.481 286.347 288.765 286.005C289.048 285.664 289.385 285.4 289.775 285.214C290.171 285.024 290.608 284.929 291.086 284.929C291.477 284.929 291.829 284.982 292.141 285.09C292.454 285.192 292.72 285.358 292.939 285.588C293.164 285.817 293.335 286.115 293.452 286.481C293.569 286.843 293.628 287.285 293.628 287.807V293H292.266V287.792C292.266 287.377 292.205 287.045 292.083 286.796C291.96 286.542 291.782 286.359 291.548 286.247C291.313 286.13 291.025 286.071 290.684 286.071C290.347 286.071 290.039 286.142 289.761 286.284C289.487 286.425 289.25 286.621 289.05 286.87C288.855 287.119 288.701 287.404 288.589 287.727C288.481 288.044 288.428 288.381 288.428 288.737ZM301.816 291.777L303.984 285.075H305.369L302.52 293H301.611L301.816 291.777ZM300.007 285.075L302.241 291.813L302.395 293H301.487L298.616 285.075H300.007ZM311.228 291.645V287.565C311.228 287.253 311.165 286.982 311.038 286.752C310.916 286.518 310.73 286.337 310.481 286.21C310.232 286.083 309.924 286.02 309.558 286.02C309.216 286.02 308.916 286.079 308.657 286.196C308.403 286.313 308.203 286.467 308.057 286.657C307.915 286.848 307.844 287.053 307.844 287.272H306.489C306.489 286.989 306.562 286.708 306.709 286.43C306.855 286.152 307.065 285.9 307.339 285.676C307.617 285.446 307.949 285.266 308.335 285.134C308.726 284.997 309.16 284.929 309.639 284.929C310.215 284.929 310.723 285.026 311.162 285.222C311.606 285.417 311.953 285.712 312.202 286.108C312.456 286.499 312.583 286.989 312.583 287.58V291.271C312.583 291.535 312.605 291.816 312.649 292.114C312.698 292.412 312.769 292.668 312.861 292.883V293H311.448C311.379 292.844 311.326 292.636 311.287 292.377C311.248 292.114 311.228 291.87 311.228 291.645ZM311.462 288.195L311.477 289.147H310.107C309.722 289.147 309.377 289.179 309.075 289.243C308.772 289.301 308.518 289.392 308.313 289.514C308.108 289.636 307.952 289.79 307.844 289.975C307.737 290.156 307.683 290.368 307.683 290.612C307.683 290.861 307.739 291.088 307.852 291.293C307.964 291.499 308.132 291.662 308.357 291.784C308.586 291.901 308.867 291.96 309.199 291.96C309.614 291.96 309.98 291.872 310.298 291.696C310.615 291.521 310.867 291.306 311.052 291.052C311.243 290.798 311.345 290.551 311.36 290.312L311.938 290.964C311.904 291.169 311.812 291.396 311.66 291.645C311.509 291.894 311.306 292.133 311.052 292.363C310.803 292.587 310.505 292.775 310.159 292.927C309.817 293.073 309.431 293.146 309.001 293.146C308.464 293.146 307.993 293.042 307.588 292.832C307.188 292.622 306.875 292.341 306.65 291.989C306.431 291.633 306.321 291.235 306.321 290.795C306.321 290.371 306.404 289.997 306.57 289.675C306.736 289.348 306.975 289.077 307.288 288.862C307.6 288.642 307.976 288.476 308.416 288.364C308.855 288.251 309.346 288.195 309.888 288.195H311.462ZM319.79 286.599V296.047H318.428V285.075H319.673L319.79 286.599ZM325.129 288.972V289.125C325.129 289.702 325.061 290.236 324.924 290.729C324.788 291.218 324.587 291.643 324.324 292.004C324.065 292.365 323.745 292.646 323.364 292.846C322.983 293.046 322.546 293.146 322.053 293.146C321.55 293.146 321.106 293.063 320.72 292.897C320.334 292.731 320.007 292.49 319.739 292.172C319.47 291.855 319.255 291.474 319.094 291.03C318.938 290.585 318.831 290.085 318.772 289.528V288.708C318.831 288.122 318.94 287.597 319.102 287.133C319.263 286.669 319.475 286.274 319.739 285.947C320.007 285.615 320.332 285.363 320.713 285.192C321.094 285.017 321.533 284.929 322.031 284.929C322.529 284.929 322.971 285.026 323.357 285.222C323.743 285.412 324.067 285.686 324.331 286.042C324.595 286.398 324.792 286.826 324.924 287.324C325.061 287.817 325.129 288.366 325.129 288.972ZM323.767 289.125V288.972C323.767 288.576 323.726 288.205 323.643 287.858C323.56 287.507 323.43 287.199 323.254 286.936C323.083 286.667 322.864 286.457 322.595 286.306C322.327 286.149 322.007 286.071 321.636 286.071C321.294 286.071 320.996 286.13 320.742 286.247C320.493 286.364 320.281 286.523 320.105 286.723C319.929 286.918 319.785 287.143 319.673 287.397C319.565 287.646 319.485 287.905 319.431 288.173V290.07C319.529 290.412 319.666 290.734 319.841 291.037C320.017 291.335 320.251 291.577 320.544 291.762C320.837 291.943 321.206 292.033 321.65 292.033C322.017 292.033 322.332 291.958 322.595 291.806C322.864 291.65 323.083 291.438 323.254 291.169C323.43 290.9 323.56 290.593 323.643 290.246C323.726 289.895 323.767 289.521 323.767 289.125ZM328.33 281.75V293H326.968V281.75H328.33ZM335.354 291.169V285.075H336.716V293H335.42L335.354 291.169ZM335.61 289.499L336.174 289.484C336.174 290.012 336.118 290.5 336.006 290.949C335.898 291.394 335.723 291.779 335.479 292.106C335.234 292.434 334.915 292.69 334.519 292.875C334.124 293.056 333.643 293.146 333.076 293.146C332.69 293.146 332.336 293.09 332.014 292.978C331.697 292.866 331.423 292.692 331.194 292.458C330.964 292.224 330.786 291.918 330.659 291.542C330.537 291.167 330.476 290.715 330.476 290.188V285.075H331.831V290.202C331.831 290.559 331.87 290.854 331.948 291.088C332.031 291.318 332.141 291.501 332.278 291.638C332.419 291.77 332.576 291.862 332.747 291.916C332.922 291.97 333.103 291.997 333.289 291.997C333.865 291.997 334.321 291.887 334.658 291.667C334.995 291.442 335.237 291.142 335.383 290.766C335.535 290.385 335.61 289.963 335.61 289.499ZM343.396 290.898C343.396 290.703 343.352 290.522 343.264 290.356C343.181 290.185 343.008 290.031 342.744 289.895C342.485 289.753 342.095 289.631 341.572 289.528C341.133 289.436 340.735 289.326 340.378 289.199C340.027 289.072 339.727 288.918 339.478 288.737C339.233 288.557 339.045 288.344 338.914 288.1C338.782 287.856 338.716 287.57 338.716 287.243C338.716 286.931 338.784 286.635 338.921 286.357C339.062 286.079 339.26 285.832 339.514 285.617C339.773 285.402 340.083 285.234 340.444 285.112C340.806 284.99 341.208 284.929 341.653 284.929C342.288 284.929 342.83 285.041 343.279 285.266C343.728 285.49 344.072 285.791 344.312 286.167C344.551 286.538 344.67 286.95 344.67 287.404H343.315C343.315 287.185 343.25 286.972 343.118 286.767C342.991 286.557 342.803 286.384 342.554 286.247C342.31 286.11 342.009 286.042 341.653 286.042C341.277 286.042 340.972 286.101 340.737 286.218C340.508 286.33 340.339 286.474 340.232 286.65C340.129 286.826 340.078 287.011 340.078 287.207C340.078 287.353 340.103 287.485 340.151 287.602C340.205 287.714 340.298 287.819 340.43 287.917C340.562 288.01 340.747 288.098 340.986 288.181C341.226 288.264 341.531 288.347 341.902 288.43C342.551 288.576 343.086 288.752 343.506 288.957C343.926 289.162 344.238 289.414 344.443 289.711C344.648 290.009 344.751 290.371 344.751 290.795C344.751 291.142 344.678 291.459 344.531 291.748C344.39 292.036 344.182 292.285 343.909 292.495C343.64 292.7 343.318 292.861 342.942 292.978C342.571 293.09 342.153 293.146 341.689 293.146C340.991 293.146 340.4 293.022 339.917 292.773C339.434 292.524 339.067 292.202 338.818 291.806C338.569 291.411 338.445 290.993 338.445 290.554H339.807C339.827 290.925 339.934 291.22 340.129 291.44C340.325 291.655 340.564 291.809 340.847 291.901C341.13 291.989 341.411 292.033 341.689 292.033C342.061 292.033 342.371 291.984 342.62 291.887C342.874 291.789 343.066 291.655 343.198 291.484C343.33 291.313 343.396 291.118 343.396 290.898ZM352.661 291.777L354.829 285.075H356.213L353.364 293H352.456L352.661 291.777ZM350.852 285.075L353.086 291.813L353.24 293H352.332L349.46 285.075H350.852ZM358.989 285.075V293H357.627V285.075H358.989ZM357.524 282.973C357.524 282.753 357.59 282.568 357.722 282.417C357.859 282.265 358.059 282.189 358.323 282.189C358.582 282.189 358.779 282.265 358.916 282.417C359.058 282.568 359.128 282.753 359.128 282.973C359.128 283.183 359.058 283.364 358.916 283.515C358.779 283.662 358.582 283.735 358.323 283.735C358.059 283.735 357.859 283.662 357.722 283.515C357.59 283.364 357.524 283.183 357.524 282.973ZM364.482 285.075V286.115H360.198V285.075H364.482ZM361.648 283.149H363.003V291.037C363.003 291.306 363.044 291.508 363.127 291.645C363.21 291.782 363.318 291.872 363.45 291.916C363.582 291.96 363.723 291.982 363.875 291.982C363.987 291.982 364.104 291.972 364.226 291.953C364.353 291.928 364.448 291.909 364.512 291.894L364.519 293C364.412 293.034 364.27 293.066 364.094 293.095C363.923 293.129 363.716 293.146 363.472 293.146C363.14 293.146 362.834 293.081 362.556 292.949C362.278 292.817 362.056 292.597 361.89 292.29C361.729 291.977 361.648 291.557 361.648 291.03V283.149ZM369.36 293.146C368.809 293.146 368.308 293.054 367.859 292.868C367.415 292.678 367.031 292.412 366.709 292.07C366.392 291.728 366.147 291.323 365.977 290.854C365.806 290.385 365.72 289.873 365.72 289.316V289.008C365.72 288.364 365.815 287.79 366.006 287.287C366.196 286.779 366.455 286.35 366.782 285.998C367.109 285.646 367.48 285.38 367.896 285.2C368.311 285.019 368.74 284.929 369.185 284.929C369.751 284.929 370.239 285.026 370.649 285.222C371.064 285.417 371.404 285.69 371.667 286.042C371.931 286.389 372.126 286.799 372.253 287.272C372.38 287.741 372.444 288.254 372.444 288.811V289.418H366.526V288.312H371.089V288.21C371.069 287.858 370.996 287.517 370.869 287.185C370.747 286.853 370.552 286.579 370.283 286.364C370.015 286.149 369.648 286.042 369.185 286.042C368.877 286.042 368.594 286.108 368.335 286.24C368.076 286.367 367.854 286.557 367.668 286.811C367.483 287.065 367.339 287.375 367.236 287.741C367.134 288.107 367.083 288.53 367.083 289.008V289.316C367.083 289.692 367.134 290.046 367.236 290.378C367.344 290.705 367.498 290.993 367.698 291.242C367.903 291.491 368.149 291.687 368.438 291.828C368.73 291.97 369.062 292.041 369.434 292.041C369.912 292.041 370.317 291.943 370.649 291.748C370.981 291.552 371.272 291.291 371.521 290.964L372.341 291.616C372.17 291.875 371.953 292.121 371.689 292.355C371.426 292.59 371.101 292.78 370.715 292.927C370.334 293.073 369.883 293.146 369.36 293.146ZM375.256 291.389V292.48C375.256 292.924 375.144 293.393 374.919 293.886C374.695 294.384 374.38 294.799 373.975 295.131L373.206 294.597C373.362 294.382 373.494 294.162 373.601 293.938C373.708 293.718 373.789 293.488 373.843 293.249C373.901 293.015 373.931 292.766 373.931 292.502V291.389H375.256ZM244.321 311.146C243.77 311.146 243.269 311.054 242.82 310.868C242.375 310.678 241.992 310.412 241.67 310.07C241.353 309.728 241.108 309.323 240.938 308.854C240.767 308.385 240.681 307.873 240.681 307.316V307.008C240.681 306.364 240.776 305.79 240.967 305.287C241.157 304.779 241.416 304.35 241.743 303.998C242.07 303.646 242.441 303.38 242.856 303.2C243.271 303.019 243.701 302.929 244.146 302.929C244.712 302.929 245.2 303.026 245.61 303.222C246.025 303.417 246.365 303.69 246.628 304.042C246.892 304.389 247.087 304.799 247.214 305.272C247.341 305.741 247.405 306.254 247.405 306.811V307.418H241.487V306.312H246.05V306.21C246.03 305.858 245.957 305.517 245.83 305.185C245.708 304.853 245.513 304.579 245.244 304.364C244.976 304.149 244.609 304.042 244.146 304.042C243.838 304.042 243.555 304.108 243.296 304.24C243.037 304.367 242.815 304.557 242.629 304.811C242.444 305.065 242.3 305.375 242.197 305.741C242.095 306.107 242.043 306.53 242.043 307.008V307.316C242.043 307.692 242.095 308.046 242.197 308.378C242.305 308.705 242.458 308.993 242.659 309.242C242.864 309.491 243.11 309.687 243.398 309.828C243.691 309.97 244.023 310.041 244.395 310.041C244.873 310.041 245.278 309.943 245.61 309.748C245.942 309.552 246.233 309.291 246.482 308.964L247.302 309.616C247.131 309.875 246.914 310.121 246.65 310.355C246.387 310.59 246.062 310.78 245.676 310.927C245.295 311.073 244.844 311.146 244.321 311.146ZM250.342 304.767V311H248.987V303.075H250.269L250.342 304.767ZM250.02 306.737L249.456 306.715C249.46 306.173 249.541 305.673 249.697 305.214C249.854 304.75 250.073 304.347 250.356 304.005C250.64 303.664 250.977 303.4 251.367 303.214C251.763 303.024 252.2 302.929 252.678 302.929C253.069 302.929 253.42 302.982 253.733 303.09C254.045 303.192 254.312 303.358 254.531 303.588C254.756 303.817 254.927 304.115 255.044 304.481C255.161 304.843 255.22 305.285 255.22 305.807V311H253.857V305.792C253.857 305.377 253.796 305.045 253.674 304.796C253.552 304.542 253.374 304.359 253.14 304.247C252.905 304.13 252.617 304.071 252.275 304.071C251.938 304.071 251.631 304.142 251.353 304.284C251.079 304.425 250.842 304.621 250.642 304.87C250.447 305.119 250.293 305.404 250.181 305.727C250.073 306.044 250.02 306.381 250.02 306.737ZM261.892 308.898C261.892 308.703 261.848 308.522 261.76 308.356C261.677 308.185 261.504 308.031 261.24 307.895C260.981 307.753 260.591 307.631 260.068 307.528C259.629 307.436 259.231 307.326 258.875 307.199C258.523 307.072 258.223 306.918 257.974 306.737C257.729 306.557 257.542 306.344 257.41 306.1C257.278 305.856 257.212 305.57 257.212 305.243C257.212 304.931 257.28 304.635 257.417 304.357C257.559 304.079 257.756 303.832 258.01 303.617C258.269 303.402 258.579 303.234 258.94 303.112C259.302 302.99 259.705 302.929 260.149 302.929C260.784 302.929 261.326 303.041 261.775 303.266C262.224 303.49 262.568 303.791 262.808 304.167C263.047 304.538 263.167 304.95 263.167 305.404H261.812C261.812 305.185 261.746 304.972 261.614 304.767C261.487 304.557 261.299 304.384 261.05 304.247C260.806 304.11 260.505 304.042 260.149 304.042C259.773 304.042 259.468 304.101 259.233 304.218C259.004 304.33 258.835 304.474 258.728 304.65C258.625 304.826 258.574 305.011 258.574 305.207C258.574 305.353 258.599 305.485 258.647 305.602C258.701 305.714 258.794 305.819 258.926 305.917C259.058 306.01 259.243 306.098 259.482 306.181C259.722 306.264 260.027 306.347 260.398 306.43C261.047 306.576 261.582 306.752 262.002 306.957C262.422 307.162 262.734 307.414 262.939 307.711C263.145 308.009 263.247 308.371 263.247 308.795C263.247 309.142 263.174 309.459 263.027 309.748C262.886 310.036 262.678 310.285 262.405 310.495C262.136 310.7 261.814 310.861 261.438 310.978C261.067 311.09 260.649 311.146 260.186 311.146C259.487 311.146 258.896 311.022 258.413 310.773C257.93 310.524 257.563 310.202 257.314 309.806C257.065 309.411 256.941 308.993 256.941 308.554H258.303C258.323 308.925 258.43 309.22 258.625 309.44C258.821 309.655 259.06 309.809 259.343 309.901C259.626 309.989 259.907 310.033 260.186 310.033C260.557 310.033 260.867 309.984 261.116 309.887C261.37 309.789 261.562 309.655 261.694 309.484C261.826 309.313 261.892 309.118 261.892 308.898ZM268.315 311.146C267.764 311.146 267.263 311.054 266.814 310.868C266.37 310.678 265.986 310.412 265.664 310.07C265.347 309.728 265.103 309.323 264.932 308.854C264.761 308.385 264.675 307.873 264.675 307.316V307.008C264.675 306.364 264.771 305.79 264.961 305.287C265.151 304.779 265.41 304.35 265.737 303.998C266.064 303.646 266.436 303.38 266.851 303.2C267.266 303.019 267.695 302.929 268.14 302.929C268.706 302.929 269.194 303.026 269.604 303.222C270.02 303.417 270.359 303.69 270.623 304.042C270.886 304.389 271.082 304.799 271.208 305.272C271.335 305.741 271.399 306.254 271.399 306.811V307.418H265.481V306.312H270.044V306.21C270.024 305.858 269.951 305.517 269.824 305.185C269.702 304.853 269.507 304.579 269.238 304.364C268.97 304.149 268.604 304.042 268.14 304.042C267.832 304.042 267.549 304.108 267.29 304.24C267.031 304.367 266.809 304.557 266.624 304.811C266.438 305.065 266.294 305.375 266.191 305.741C266.089 306.107 266.038 306.53 266.038 307.008V307.316C266.038 307.692 266.089 308.046 266.191 308.378C266.299 308.705 266.453 308.993 266.653 309.242C266.858 309.491 267.104 309.687 267.393 309.828C267.686 309.97 268.018 310.041 268.389 310.041C268.867 310.041 269.272 309.943 269.604 309.748C269.937 309.552 270.227 309.291 270.476 308.964L271.296 309.616C271.125 309.875 270.908 310.121 270.645 310.355C270.381 310.59 270.056 310.78 269.67 310.927C269.29 311.073 268.838 311.146 268.315 311.146ZM274.329 304.65V311H272.966V303.075H274.255L274.329 304.65ZM274.05 306.737L273.42 306.715C273.425 306.173 273.496 305.673 273.633 305.214C273.77 304.75 273.972 304.347 274.241 304.005C274.509 303.664 274.844 303.4 275.244 303.214C275.645 303.024 276.108 302.929 276.636 302.929C277.007 302.929 277.349 302.982 277.661 303.09C277.974 303.192 278.245 303.356 278.474 303.581C278.704 303.805 278.882 304.093 279.009 304.445C279.136 304.796 279.199 305.221 279.199 305.719V311H277.844V305.785C277.844 305.37 277.773 305.038 277.632 304.789C277.495 304.54 277.3 304.359 277.046 304.247C276.792 304.13 276.494 304.071 276.152 304.071C275.752 304.071 275.417 304.142 275.149 304.284C274.88 304.425 274.666 304.621 274.504 304.87C274.343 305.119 274.226 305.404 274.153 305.727C274.084 306.044 274.05 306.381 274.05 306.737ZM279.185 305.99L278.276 306.269C278.281 305.834 278.352 305.417 278.489 305.016C278.63 304.616 278.833 304.259 279.097 303.947C279.365 303.634 279.695 303.388 280.085 303.207C280.476 303.021 280.923 302.929 281.426 302.929C281.851 302.929 282.227 302.985 282.554 303.097C282.886 303.209 283.164 303.383 283.389 303.617C283.618 303.847 283.792 304.142 283.909 304.503C284.026 304.865 284.084 305.294 284.084 305.792V311H282.722V305.778C282.722 305.333 282.651 304.989 282.51 304.745C282.373 304.496 282.178 304.323 281.924 304.225C281.675 304.123 281.377 304.071 281.03 304.071C280.732 304.071 280.469 304.123 280.239 304.225C280.01 304.328 279.817 304.469 279.661 304.65C279.504 304.826 279.385 305.028 279.302 305.258C279.224 305.487 279.185 305.731 279.185 305.99ZM286.128 299.75H287.49V309.462L287.373 311H286.128V299.75ZM292.844 306.972V307.125C292.844 307.702 292.776 308.236 292.639 308.729C292.502 309.218 292.302 309.643 292.039 310.004C291.775 310.365 291.453 310.646 291.072 310.846C290.691 311.046 290.254 311.146 289.761 311.146C289.258 311.146 288.816 311.061 288.435 310.89C288.059 310.714 287.742 310.463 287.483 310.136C287.224 309.809 287.017 309.413 286.86 308.949C286.709 308.485 286.604 307.963 286.545 307.382V306.708C286.604 306.122 286.709 305.597 286.86 305.133C287.017 304.669 287.224 304.274 287.483 303.947C287.742 303.615 288.059 303.363 288.435 303.192C288.811 303.017 289.248 302.929 289.746 302.929C290.244 302.929 290.686 303.026 291.072 303.222C291.458 303.412 291.78 303.686 292.039 304.042C292.302 304.398 292.502 304.826 292.639 305.324C292.776 305.817 292.844 306.366 292.844 306.972ZM291.482 307.125V306.972C291.482 306.576 291.445 306.205 291.372 305.858C291.299 305.507 291.182 305.199 291.021 304.936C290.859 304.667 290.647 304.457 290.383 304.306C290.12 304.149 289.795 304.071 289.409 304.071C289.067 304.071 288.77 304.13 288.516 304.247C288.267 304.364 288.054 304.523 287.878 304.723C287.703 304.918 287.559 305.143 287.446 305.397C287.339 305.646 287.258 305.905 287.205 306.173V307.938C287.283 308.28 287.41 308.61 287.585 308.927C287.766 309.24 288.005 309.496 288.303 309.696C288.606 309.896 288.979 309.997 289.424 309.997C289.79 309.997 290.103 309.923 290.361 309.777C290.625 309.625 290.837 309.418 290.999 309.154C291.165 308.891 291.287 308.585 291.365 308.239C291.443 307.892 291.482 307.521 291.482 307.125ZM296.03 299.75V311H294.668V299.75H296.03ZM301.494 311.146C300.942 311.146 300.442 311.054 299.993 310.868C299.548 310.678 299.165 310.412 298.843 310.07C298.525 309.728 298.281 309.323 298.11 308.854C297.939 308.385 297.854 307.873 297.854 307.316V307.008C297.854 306.364 297.949 305.79 298.14 305.287C298.33 304.779 298.589 304.35 298.916 303.998C299.243 303.646 299.614 303.38 300.029 303.2C300.444 303.019 300.874 302.929 301.318 302.929C301.885 302.929 302.373 303.026 302.783 303.222C303.198 303.417 303.538 303.69 303.801 304.042C304.065 304.389 304.26 304.799 304.387 305.272C304.514 305.741 304.578 306.254 304.578 306.811V307.418H298.66V306.312H303.223V306.21C303.203 305.858 303.13 305.517 303.003 305.185C302.881 304.853 302.686 304.579 302.417 304.364C302.148 304.149 301.782 304.042 301.318 304.042C301.011 304.042 300.728 304.108 300.469 304.24C300.21 304.367 299.988 304.557 299.802 304.811C299.617 305.065 299.473 305.375 299.37 305.741C299.268 306.107 299.216 306.53 299.216 307.008V307.316C299.216 307.692 299.268 308.046 299.37 308.378C299.478 308.705 299.631 308.993 299.832 309.242C300.037 309.491 300.283 309.687 300.571 309.828C300.864 309.97 301.196 310.041 301.567 310.041C302.046 310.041 302.451 309.943 302.783 309.748C303.115 309.552 303.406 309.291 303.655 308.964L304.475 309.616C304.304 309.875 304.087 310.121 303.823 310.355C303.56 310.59 303.235 310.78 302.849 310.927C302.468 311.073 302.017 311.146 301.494 311.146ZM309.521 307.125V306.957C309.521 306.386 309.604 305.856 309.771 305.368C309.937 304.875 310.176 304.447 310.488 304.086C310.801 303.72 311.179 303.437 311.624 303.236C312.068 303.031 312.566 302.929 313.118 302.929C313.674 302.929 314.175 303.031 314.619 303.236C315.068 303.437 315.449 303.72 315.762 304.086C316.079 304.447 316.321 304.875 316.487 305.368C316.653 305.856 316.736 306.386 316.736 306.957V307.125C316.736 307.697 316.653 308.227 316.487 308.715C316.321 309.203 316.079 309.63 315.762 309.997C315.449 310.358 315.071 310.641 314.626 310.846C314.187 311.046 313.689 311.146 313.132 311.146C312.576 311.146 312.075 311.046 311.631 310.846C311.187 310.641 310.806 310.358 310.488 309.997C310.176 309.63 309.937 309.203 309.771 308.715C309.604 308.227 309.521 307.697 309.521 307.125ZM310.876 306.957V307.125C310.876 307.521 310.923 307.895 311.016 308.246C311.108 308.593 311.248 308.9 311.433 309.169C311.624 309.438 311.86 309.65 312.144 309.806C312.427 309.958 312.756 310.033 313.132 310.033C313.503 310.033 313.828 309.958 314.106 309.806C314.39 309.65 314.624 309.438 314.81 309.169C314.995 308.9 315.134 308.593 315.227 308.246C315.325 307.895 315.374 307.521 315.374 307.125V306.957C315.374 306.566 315.325 306.198 315.227 305.851C315.134 305.5 314.993 305.189 314.802 304.921C314.617 304.647 314.382 304.433 314.099 304.276C313.821 304.12 313.494 304.042 313.118 304.042C312.747 304.042 312.419 304.12 312.136 304.276C311.858 304.433 311.624 304.647 311.433 304.921C311.248 305.189 311.108 305.5 311.016 305.851C310.923 306.198 310.876 306.566 310.876 306.957ZM319.79 304.767V311H318.435V303.075H319.717L319.79 304.767ZM319.468 306.737L318.904 306.715C318.909 306.173 318.989 305.673 319.146 305.214C319.302 304.75 319.521 304.347 319.805 304.005C320.088 303.664 320.425 303.4 320.815 303.214C321.211 303.024 321.648 302.929 322.126 302.929C322.517 302.929 322.869 302.982 323.181 303.09C323.494 303.192 323.76 303.358 323.979 303.588C324.204 303.817 324.375 304.115 324.492 304.481C324.609 304.843 324.668 305.285 324.668 305.807V311H323.306V305.792C323.306 305.377 323.245 305.045 323.123 304.796C323 304.542 322.822 304.359 322.588 304.247C322.354 304.13 322.065 304.071 321.724 304.071C321.387 304.071 321.079 304.142 320.801 304.284C320.527 304.425 320.291 304.621 320.09 304.87C319.895 305.119 319.741 305.404 319.629 305.727C319.521 306.044 319.468 306.381 319.468 306.737ZM332.856 309.777L335.024 303.075H336.409L333.56 311H332.651L332.856 309.777ZM331.047 303.075L333.281 309.813L333.435 311H332.527L329.656 303.075H331.047ZM342.268 309.645V305.565C342.268 305.253 342.205 304.982 342.078 304.752C341.956 304.518 341.77 304.337 341.521 304.21C341.272 304.083 340.964 304.02 340.598 304.02C340.256 304.02 339.956 304.079 339.697 304.196C339.443 304.313 339.243 304.467 339.097 304.657C338.955 304.848 338.884 305.053 338.884 305.272H337.529C337.529 304.989 337.603 304.708 337.749 304.43C337.896 304.152 338.105 303.9 338.379 303.676C338.657 303.446 338.989 303.266 339.375 303.134C339.766 302.997 340.2 302.929 340.679 302.929C341.255 302.929 341.763 303.026 342.202 303.222C342.646 303.417 342.993 303.712 343.242 304.108C343.496 304.499 343.623 304.989 343.623 305.58V309.271C343.623 309.535 343.645 309.816 343.689 310.114C343.738 310.412 343.809 310.668 343.901 310.883V311H342.488C342.419 310.844 342.366 310.636 342.327 310.377C342.288 310.114 342.268 309.87 342.268 309.645ZM342.502 306.195L342.517 307.147H341.147C340.762 307.147 340.417 307.179 340.115 307.243C339.812 307.301 339.558 307.392 339.353 307.514C339.148 307.636 338.992 307.79 338.884 307.975C338.777 308.156 338.723 308.368 338.723 308.612C338.723 308.861 338.779 309.088 338.892 309.293C339.004 309.499 339.172 309.662 339.397 309.784C339.626 309.901 339.907 309.96 340.239 309.96C340.654 309.96 341.021 309.872 341.338 309.696C341.655 309.521 341.907 309.306 342.092 309.052C342.283 308.798 342.385 308.551 342.4 308.312L342.979 308.964C342.944 309.169 342.852 309.396 342.7 309.645C342.549 309.894 342.346 310.133 342.092 310.363C341.843 310.587 341.545 310.775 341.199 310.927C340.857 311.073 340.471 311.146 340.042 311.146C339.504 311.146 339.033 311.042 338.628 310.832C338.228 310.622 337.915 310.341 337.69 309.989C337.471 309.633 337.361 309.235 337.361 308.795C337.361 308.371 337.444 307.997 337.61 307.675C337.776 307.348 338.015 307.077 338.328 306.862C338.64 306.642 339.016 306.476 339.456 306.364C339.895 306.251 340.386 306.195 340.928 306.195H342.502ZM350.83 304.599V314.047H349.468V303.075H350.713L350.83 304.599ZM356.169 306.972V307.125C356.169 307.702 356.101 308.236 355.964 308.729C355.828 309.218 355.627 309.643 355.364 310.004C355.105 310.365 354.785 310.646 354.404 310.846C354.023 311.046 353.586 311.146 353.093 311.146C352.59 311.146 352.146 311.063 351.76 310.897C351.375 310.731 351.047 310.49 350.779 310.172C350.51 309.855 350.295 309.474 350.134 309.03C349.978 308.585 349.871 308.085 349.812 307.528V306.708C349.871 306.122 349.98 305.597 350.142 305.133C350.303 304.669 350.515 304.274 350.779 303.947C351.047 303.615 351.372 303.363 351.753 303.192C352.134 303.017 352.573 302.929 353.071 302.929C353.569 302.929 354.011 303.026 354.397 303.222C354.783 303.412 355.107 303.686 355.371 304.042C355.635 304.398 355.833 304.826 355.964 305.324C356.101 305.817 356.169 306.366 356.169 306.972ZM354.807 307.125V306.972C354.807 306.576 354.766 306.205 354.683 305.858C354.6 305.507 354.47 305.199 354.294 304.936C354.124 304.667 353.904 304.457 353.635 304.306C353.367 304.149 353.047 304.071 352.676 304.071C352.334 304.071 352.036 304.13 351.782 304.247C351.533 304.364 351.321 304.523 351.145 304.723C350.969 304.918 350.825 305.143 350.713 305.397C350.605 305.646 350.525 305.905 350.471 306.173V308.07C350.569 308.412 350.706 308.734 350.881 309.037C351.057 309.335 351.292 309.577 351.584 309.762C351.877 309.943 352.246 310.033 352.69 310.033C353.057 310.033 353.372 309.958 353.635 309.806C353.904 309.65 354.124 309.438 354.294 309.169C354.47 308.9 354.6 308.593 354.683 308.246C354.766 307.895 354.807 307.521 354.807 307.125ZM359.37 299.75V311H358.008V299.75H359.37ZM366.394 309.169V303.075H367.756V311H366.46L366.394 309.169ZM366.65 307.499L367.214 307.484C367.214 308.012 367.158 308.5 367.046 308.949C366.938 309.394 366.763 309.779 366.519 310.106C366.274 310.434 365.955 310.69 365.559 310.875C365.164 311.056 364.683 311.146 364.116 311.146C363.73 311.146 363.376 311.09 363.054 310.978C362.737 310.866 362.463 310.692 362.234 310.458C362.004 310.224 361.826 309.918 361.699 309.542C361.577 309.167 361.516 308.715 361.516 308.188V303.075H362.871V308.202C362.871 308.559 362.91 308.854 362.988 309.088C363.071 309.318 363.181 309.501 363.318 309.638C363.459 309.77 363.616 309.862 363.787 309.916C363.962 309.97 364.143 309.997 364.329 309.997C364.905 309.997 365.361 309.887 365.698 309.667C366.035 309.442 366.277 309.142 366.423 308.766C366.575 308.385 366.65 307.963 366.65 307.499ZM374.436 308.898C374.436 308.703 374.392 308.522 374.304 308.356C374.221 308.185 374.048 308.031 373.784 307.895C373.525 307.753 373.135 307.631 372.612 307.528C372.173 307.436 371.775 307.326 371.418 307.199C371.067 307.072 370.767 306.918 370.518 306.737C370.273 306.557 370.085 306.344 369.954 306.1C369.822 305.856 369.756 305.57 369.756 305.243C369.756 304.931 369.824 304.635 369.961 304.357C370.103 304.079 370.3 303.832 370.554 303.617C370.813 303.402 371.123 303.234 371.484 303.112C371.846 302.99 372.249 302.929 372.693 302.929C373.328 302.929 373.87 303.041 374.319 303.266C374.768 303.49 375.112 303.791 375.352 304.167C375.591 304.538 375.71 304.95 375.71 305.404H374.355C374.355 305.185 374.29 304.972 374.158 304.767C374.031 304.557 373.843 304.384 373.594 304.247C373.35 304.11 373.049 304.042 372.693 304.042C372.317 304.042 372.012 304.101 371.777 304.218C371.548 304.33 371.379 304.474 371.272 304.65C371.169 304.826 371.118 305.011 371.118 305.207C371.118 305.353 371.143 305.485 371.191 305.602C371.245 305.714 371.338 305.819 371.47 305.917C371.602 306.01 371.787 306.098 372.026 306.181C372.266 306.264 372.571 306.347 372.942 306.43C373.591 306.576 374.126 306.752 374.546 306.957C374.966 307.162 375.278 307.414 375.483 307.711C375.688 308.009 375.791 308.371 375.791 308.795C375.791 309.142 375.718 309.459 375.571 309.748C375.43 310.036 375.222 310.285 374.949 310.495C374.68 310.7 374.358 310.861 373.982 310.978C373.611 311.09 373.193 311.146 372.729 311.146C372.031 311.146 371.44 311.022 370.957 310.773C370.474 310.524 370.107 310.202 369.858 309.806C369.609 309.411 369.485 308.993 369.485 308.554H370.847C370.867 308.925 370.974 309.22 371.169 309.44C371.365 309.655 371.604 309.809 371.887 309.901C372.17 309.989 372.451 310.033 372.729 310.033C373.101 310.033 373.411 309.984 373.66 309.887C373.914 309.789 374.106 309.655 374.238 309.484C374.37 309.313 374.436 309.118 374.436 308.898ZM382.764 299.75V311H381.401V299.75H382.764ZM384.58 307.125V306.957C384.58 306.386 384.663 305.856 384.829 305.368C384.995 304.875 385.234 304.447 385.547 304.086C385.859 303.72 386.238 303.437 386.682 303.236C387.126 303.031 387.625 302.929 388.176 302.929C388.733 302.929 389.233 303.031 389.678 303.236C390.127 303.437 390.508 303.72 390.82 304.086C391.138 304.447 391.379 304.875 391.545 305.368C391.711 305.856 391.794 306.386 391.794 306.957V307.125C391.794 307.697 391.711 308.227 391.545 308.715C391.379 309.203 391.138 309.63 390.82 309.997C390.508 310.358 390.129 310.641 389.685 310.846C389.246 311.046 388.748 311.146 388.191 311.146C387.634 311.146 387.134 311.046 386.689 310.846C386.245 310.641 385.864 310.358 385.547 309.997C385.234 309.63 384.995 309.203 384.829 308.715C384.663 308.227 384.58 307.697 384.58 307.125ZM385.935 306.957V307.125C385.935 307.521 385.981 307.895 386.074 308.246C386.167 308.593 386.306 308.9 386.492 309.169C386.682 309.438 386.919 309.65 387.202 309.806C387.485 309.958 387.815 310.033 388.191 310.033C388.562 310.033 388.887 309.958 389.165 309.806C389.448 309.65 389.683 309.438 389.868 309.169C390.054 308.9 390.193 308.593 390.286 308.246C390.383 307.895 390.432 307.521 390.432 307.125V306.957C390.432 306.566 390.383 306.198 390.286 305.851C390.193 305.5 390.051 305.189 389.861 304.921C389.675 304.647 389.441 304.433 389.158 304.276C388.879 304.12 388.552 304.042 388.176 304.042C387.805 304.042 387.478 304.12 387.195 304.276C386.917 304.433 386.682 304.647 386.492 304.921C386.306 305.189 386.167 305.5 386.074 305.851C385.981 306.198 385.935 306.566 385.935 306.957ZM394.966 303.075V311H393.604V303.075H394.966ZM393.501 300.973C393.501 300.753 393.567 300.568 393.699 300.417C393.835 300.265 394.036 300.189 394.299 300.189C394.558 300.189 394.756 300.265 394.893 300.417C395.034 300.568 395.105 300.753 395.105 300.973C395.105 301.183 395.034 301.364 394.893 301.515C394.756 301.662 394.558 301.735 394.299 301.735C394.036 301.735 393.835 301.662 393.699 301.515C393.567 301.364 393.501 301.183 393.501 300.973ZM398.496 304.767V311H397.141V303.075H398.423L398.496 304.767ZM398.174 306.737L397.61 306.715C397.615 306.173 397.695 305.673 397.852 305.214C398.008 304.75 398.228 304.347 398.511 304.005C398.794 303.664 399.131 303.4 399.521 303.214C399.917 303.024 400.354 302.929 400.833 302.929C401.223 302.929 401.575 302.982 401.887 303.09C402.2 303.192 402.466 303.358 402.686 303.588C402.91 303.817 403.081 304.115 403.198 304.481C403.315 304.843 403.374 305.285 403.374 305.807V311H402.012V305.792C402.012 305.377 401.951 305.045 401.829 304.796C401.707 304.542 401.528 304.359 401.294 304.247C401.06 304.13 400.771 304.071 400.43 304.071C400.093 304.071 399.785 304.142 399.507 304.284C399.233 304.425 398.997 304.621 398.796 304.87C398.601 305.119 398.447 305.404 398.335 305.727C398.228 306.044 398.174 306.381 398.174 306.737ZM405.454 310.282C405.454 310.053 405.525 309.86 405.667 309.704C405.813 309.542 406.023 309.462 406.296 309.462C406.57 309.462 406.777 309.542 406.919 309.704C407.065 309.86 407.139 310.053 407.139 310.282C407.139 310.507 407.065 310.697 406.919 310.854C406.777 311.01 406.57 311.088 406.296 311.088C406.023 311.088 405.813 311.01 405.667 310.854C405.525 310.697 405.454 310.507 405.454 310.282ZM409.6 299.75V300.688C409.6 300.98 409.548 301.291 409.446 301.618C409.348 301.94 409.204 302.252 409.014 302.555C408.823 302.853 408.594 303.114 408.325 303.339L407.549 302.804C407.778 302.482 407.952 302.152 408.069 301.815C408.191 301.474 408.252 301.105 408.252 300.709V299.75H409.6ZM411.848 299.75V300.688C411.848 300.98 411.797 301.291 411.694 301.618C411.597 301.94 411.453 302.252 411.262 302.555C411.072 302.853 410.842 303.114 410.574 303.339L409.797 302.804C410.027 302.482 410.2 302.152 410.317 301.815C410.439 301.474 410.5 301.105 410.5 300.709V299.75H411.848Z" fill="white"></path>
</svg>
