<svg width="12" height="17" viewBox="0 0 12 17" fill="none" xmlns="http://www.w3.org/2000/svg">
<path d="M10.4165 8.16602C10.4165 10.666 8.29984 12.416 5.99984 12.416C3.69984 12.416 1.58317 10.666 1.58317 8.16602H0.166504C0.166504 11.0077 2.43317 13.3577 5.1665 13.766V16.4993H6.83317V13.766C9.5665 13.3577 11.8332 11.0077 11.8332 8.16602M4.99984 3.08268C4.99984 2.53268 5.44984 2.08268 5.99984 2.08268C6.54984 2.08268 6.99984 2.53268 6.99984 3.08268L6.9915 8.24935C6.9915 8.79935 6.54984 9.24935 5.99984 9.24935C5.44984 9.24935 4.99984 8.79935 4.99984 8.24935M5.99984 10.666C6.66288 10.666 7.29876 10.4026 7.7676 9.93378C8.23645 9.46494 8.49984 8.82906 8.49984 8.16602V3.16602C8.49984 2.50297 8.23645 1.86709 7.7676 1.39825C7.29876 0.929408 6.66288 0.666016 5.99984 0.666016C5.3368 0.666016 4.70091 0.929408 4.23207 1.39825C3.76323 1.86709 3.49984 2.50297 3.49984 3.16602V8.16602C3.49984 8.82906 3.76323 9.46494 4.23207 9.93378C4.70091 10.4026 5.3368 10.666 5.99984 10.666Z" fill="white"/>
</svg>
